<svg xmlns="http://www.w3.org/2000/svg" viewBox="0 0 500 500"><g id="freepik--background-complete--inject-77"><rect y="382.4" width="500" height="0.25" style="fill:#e0e0e0"></rect><rect x="161.85" y="388.44" width="10.48" height="0.25" style="fill:#e0e0e0"></rect><rect x="428.25" y="395" width="37.94" height="0.25" style="fill:#e0e0e0"></rect><rect x="317.34" y="388.56" width="30.66" height="0.25" style="fill:#e0e0e0"></rect><rect x="189.11" y="394.26" width="53.36" height="0.25" style="fill:#e0e0e0"></rect><rect x="121.33" y="392.68" width="18.34" height="0.25" style="fill:#e0e0e0"></rect><rect x="408.16" y="395" width="15.26" height="0.25" style="fill:#e0e0e0"></rect><rect x="64.93" y="392.56" width="50.57" height="0.25" style="fill:#e0e0e0"></rect><path d="M237,337.8H43.91a5.71,5.71,0,0,1-5.7-5.71V60.66A5.71,5.71,0,0,1,43.91,55H237a5.71,5.71,0,0,1,5.71,5.71V332.09A5.71,5.71,0,0,1,237,337.8ZM43.91,55.2a5.46,5.46,0,0,0-5.45,5.46V332.09a5.46,5.46,0,0,0,5.45,5.46H237a5.47,5.47,0,0,0,5.46-5.46V60.66A5.47,5.47,0,0,0,237,55.2Z" style="fill:#e0e0e0"></path><path d="M453.31,337.8H260.21a5.72,5.72,0,0,1-5.71-5.71V60.66A5.72,5.72,0,0,1,260.21,55h193.1A5.71,5.71,0,0,1,459,60.66V332.09A5.71,5.71,0,0,1,453.31,337.8ZM260.21,55.2a5.47,5.47,0,0,0-5.46,5.46V332.09a5.47,5.47,0,0,0,5.46,5.46h193.1a5.47,5.47,0,0,0,5.46-5.46V60.66a5.47,5.47,0,0,0-5.46-5.46Z" style="fill:#e0e0e0"></path><rect x="74.11" y="118.11" width="119.56" height="264.41" style="fill:#e6e6e6"></rect><rect x="79.78" y="118.11" width="113.89" height="264.41" style="fill:#f5f5f5"></rect><rect x="10.52" y="199.37" width="252.41" height="101.89" transform="translate(387.04 113.6) rotate(90)" style="fill:#f0f0f0"></rect><rect x="60.68" y="249.54" width="252.41" height="1.56" transform="translate(437.21 63.43) rotate(90)" style="fill:#e6e6e6"></rect><circle cx="174.06" cy="239.39" r="5.11" style="fill:#e6e6e6"></circle><circle cx="176.06" cy="238.33" r="5.11" style="fill:#fafafa"></circle><rect x="364.32" y="89.94" width="80.93" height="152.02" style="fill:#e0e0e0"></rect><rect x="367.78" y="89.94" width="80.93" height="152.02" style="fill:#f5f5f5"></rect><rect x="338.92" y="131.69" width="138.64" height="68.52" transform="translate(574.19 -242.29) rotate(90)" style="fill:#fafafa"></rect><rect x="371.88" y="164.64" width="138.64" height="2.61" transform="translate(607.15 -275.25) rotate(90)" style="fill:#e0e0e0"></rect><rect x="370.35" y="195.12" width="75.8" height="8.98" style="fill:#f5f5f5"></rect><rect x="264.53" y="89.94" width="80.93" height="152.02" style="fill:#e0e0e0"></rect><rect x="267.98" y="89.94" width="80.93" height="152.02" style="fill:#f5f5f5"></rect><rect x="239.12" y="131.69" width="138.64" height="68.52" transform="translate(474.4 -142.5) rotate(90)" style="fill:#fafafa"></rect><rect x="272.08" y="164.64" width="138.64" height="2.61" transform="translate(507.35 -175.45) rotate(90)" style="fill:#e0e0e0"></rect><rect x="270.55" y="195.12" width="75.8" height="8.98" style="fill:#f5f5f5"></rect><polygon points="159.5 106.48 158.59 107.39 113.94 107.39 113.94 89.94 159.5 106.48" style="fill:#e0e0e0"></polygon><polygon points="115.67 106.48 159.5 106.48 157.78 89.94 113.94 89.94 115.67 106.48" style="fill:#f5f5f5"></polygon><rect x="205.3" y="229.94" width="18.9" height="18.9" transform="translate(429.49 478.78) rotate(180)" style="fill:#ebebeb"></rect><rect x="204.66" y="229.94" width="0.64" height="18.9" style="fill:#e0e0e0"></rect><polygon points="222.43 245.24 221.75 245.92 207.69 245.92 207.69 232.96 222.43 245.24" style="fill:#e0e0e0"></polygon><polygon points="208.97 245.24 222.43 245.24 221.16 232.96 207.69 232.96 208.97 245.24" style="fill:#fafafa"></polygon><polygon points="232.29 273.61 241.79 265.03 251.28 273.61 251.28 382.65 232.29 382.65 232.29 273.61" style="fill:#f0f0f0"></polygon><polygon points="265.2 273.61 274.69 265.03 284.19 273.61 284.19 382.65 265.2 382.65 265.2 273.61" style="fill:#f0f0f0"></polygon><polygon points="298.1 273.61 307.6 265.03 317.09 273.61 317.09 382.65 298.1 382.65 298.1 273.61" style="fill:#f0f0f0"></polygon><polygon points="331.01 273.61 340.5 265.03 349.99 273.61 349.99 382.65 331.01 382.65 331.01 273.61" style="fill:#f0f0f0"></polygon><polygon points="363.91 273.61 373.41 265.03 382.9 273.61 382.9 382.65 363.91 382.65 363.91 273.61" style="fill:#f0f0f0"></polygon><polygon points="396.82 273.61 406.31 265.03 415.8 273.61 415.8 382.65 396.82 382.65 396.82 273.61" style="fill:#f0f0f0"></polygon><polygon points="429.72 273.61 439.22 265.03 448.71 273.61 448.71 382.65 429.72 382.65 429.72 273.61" style="fill:#f0f0f0"></polygon><rect x="241.79" y="289.48" width="197.43" height="4.84" transform="translate(681 583.79) rotate(180)" style="fill:#f0f0f0"></rect><rect x="241.79" y="346.76" width="197.43" height="4.84" transform="translate(681 698.35) rotate(180)" style="fill:#f0f0f0"></rect></g><g id="freepik--Shadow--inject-77"><ellipse cx="250" cy="416.24" rx="193.89" ry="11.32" style="fill:#f5f5f5"></ellipse></g><g id="freepik--Character--inject-77"><path d="M351.94,189.79l.53.45.63.5c.42.34.87.68,1.31,1,.9.65,1.82,1.29,2.78,1.87a50.64,50.64,0,0,0,5.93,3.22,60.81,60.81,0,0,0,6.31,2.42c1.09.29,2.16.65,3.27.87l1.66.36.2,0h0l0,0s0,0-.05,0-.1.11,0,0a2.47,2.47,0,0,0,.48-.75,11.31,11.31,0,0,0,.81-2.76,44.24,44.24,0,0,0,.55-6.75c0-2.33,0-4.7-.14-7.07s-.29-4.78-.49-7.13l3.5-.63a91.18,91.18,0,0,1,2.44,14.66,42.61,42.61,0,0,1,0,7.74,18,18,0,0,1-.94,4.27,8.92,8.92,0,0,1-1.31,2.39,6.19,6.19,0,0,1-2.84,2.09,6.34,6.34,0,0,1-2.7.34l-.41-.05-.24,0-1.91-.31c-1.28-.19-2.53-.53-3.8-.8a51.47,51.47,0,0,1-7.34-2.47,52.87,52.87,0,0,1-6.9-3.55c-1.11-.67-2.18-1.41-3.24-2.18-.53-.39-1.05-.79-1.57-1.21-.26-.21-.51-.43-.77-.66s-.49-.43-.83-.75Z" style="fill:#9f5b53"></path><path d="M341.91,185.59c10.13-1.38,18.31,6.81,18.31,6.81l-7.56,12.86S341,200.35,339.24,196C337.42,191.5,336.71,186.29,341.91,185.59Z" style="fill:#407BFF"></path><path d="M341.91,185.59c10.13-1.38,18.31,6.81,18.31,6.81l-7.56,12.86S341,200.35,339.24,196C337.42,191.5,336.71,186.29,341.91,185.59Z" style="opacity:0.30000000000000004"></path><path d="M376.67,177.91l-5.55-5.12,8.23-3.21s2.61,4.4.5,8.8Z" style="fill:#9f5b53"></path><polygon points="370 165.45 376.55 164.2 379.35 169.58 371.12 172.79 370 165.45" style="fill:#9f5b53"></polygon><polygon points="306 408.57 314.16 409.37 322.66 389.94 314.5 389.14 306 408.57" style="fill:#9f5b53"></polygon><polygon points="253.43 379.85 259.56 385.61 272.79 371.06 266.66 365.31 253.43 379.85" style="fill:#9f5b53"></polygon><path d="M262.39,382.85l-4.61-8.3a.67.67,0,0,0-.83-.31l-7.09,2.7a1.35,1.35,0,0,0-.66,1.91c1.66,2.87,2.6,4.17,4.62,7.82,1.25,2.24,3.68,7.39,5.4,10.49s4.88,1.57,4.44.12c-2-6.48-1.6-10.09-1-12.95A2.22,2.22,0,0,0,262.39,382.85Z" style="fill:#263238"></path><path d="M315.25,406.85h-10a.83.83,0,0,0-.79.61l-2.18,7.93a1.24,1.24,0,0,0,1.23,1.58c3.53,0,5.2,0,9.61,0h13.47c3.67,0,4.43-3.7,2.92-4-6.8-1.5-10.72-3.58-12.81-5.55A2.06,2.06,0,0,0,315.25,406.85Z" style="fill:#263238"></path><polygon points="322.65 389.95 318.28 399.96 309.76 399.96 314.49 389.15 322.65 389.95" style="fill:#8a4743"></polygon><polygon points="266.65 365.31 272.79 371.07 265.96 378.56 259.83 372.8 266.65 365.31" style="fill:#8a4743"></polygon><path d="M350.58,186.53s3.66,1.62-8.64,50.32l-34.19-3c1.78-13.87,2.54-22.45-1.65-51.58a102.21,102.21,0,0,1,14.69-.65A108.91,108.91,0,0,1,336.31,183,146.44,146.44,0,0,1,350.58,186.53Z" style="fill:#407BFF"></path><path d="M350.58,186.53s3.66,1.62-8.64,50.32l-34.19-3c1.78-13.87,2.54-22.45-1.65-51.58a102.21,102.21,0,0,1,14.69-.65A108.91,108.91,0,0,1,336.31,183,146.44,146.44,0,0,1,350.58,186.53Z" style="opacity:0.30000000000000004"></path><path d="M320.79,181.66s-1.94-.21-4.23-.21c-1.38,2.13,2.81,10.22,10.21,16.3a29.78,29.78,0,0,1,6.23-7.42Z" style="fill:#fafafa"></path><path d="M336.31,183a15.42,15.42,0,0,1,2.93.47c1.38,2.13,4.05,9.66,0,14.28a29.78,29.78,0,0,0-6.23-7.42Z" style="fill:#fafafa"></path><path d="M334.11,195.75c0,.61-.17,1.11-.46,1.13s-.54-.47-.58-1.07.17-1.12.46-1.13S334.08,195.14,334.11,195.75Z" style="fill:#fafafa"></path><path d="M334,200.38c0,.6-.26,1.09-.55,1.09s-.5-.51-.49-1.12.26-1.09.55-1.09S334.05,199.77,334,200.38Z" style="fill:#fafafa"></path><path d="M323.84,164.31c.55,5.08.73,14.32-3,17.35A57.68,57.68,0,0,0,333,190.33c5.94-4.1,3.31-7.33,3.31-7.33-5.45-1.81-4.95-5.93-3.65-9.73Z" style="fill:#9f5b53"></path><path d="M327.44,168l5.22,5.3a16.7,16.7,0,0,0-.72,2.71c-2.1-.49-5.14-2.67-5.17-4.92A8.79,8.79,0,0,1,327.44,168Z" style="fill:#8a4743"></path><path d="M333.82,149.26s5.54,5.44,6.76,8.09c3.36,1.25,2.45-7.6-.1-12.72C336,148.62,333.82,149.26,333.82,149.26Z" style="fill:#263238"></path><path d="M319.37,156.37c2.12,8.12,2.84,11.6,7.82,15,7.48,5.11,17,.73,17.33-7.85.32-7.73-3.2-19.7-11.88-21.38A11.43,11.43,0,0,0,319.37,156.37Z" style="fill:#9f5b53"></path><path d="M337.78,146c3.72.55,7.43-2.93,1.41-6.66,1.93-.2,4-7-3-6.63-.34-3.23-7.27-6.11-11-1-4.31-2.84-10.43.06-9.06,4.47-4.95.31-7.53,7.07-3.44,8.17-4.92,3-5.78,7.85-1,8.73.66,5.61,11.65,3.1,10.8-2.12,2,1.07,8.28-1.23,7-4C331.52,149.57,337.78,148.38,337.78,146Z" style="fill:#263238"></path><path d="M315,153.14s4.08,6.6,4.62,9.47c3,2,4.21-6.79,3-12.37C317.25,153,315,153.14,315,153.14Z" style="fill:#263238"></path><path d="M318.7,163.7a6.17,6.17,0,0,0,3.6,3c2.06.61,3.13-1.22,2.6-3.18-.49-1.77-2.14-4.22-4.22-4A2.76,2.76,0,0,0,318.7,163.7Z" style="fill:#9f5b53"></path><path d="M341.94,236.85s11.57,51.17,3.84,87.24c-5.17,24.16-23.82,73-23.82,73l-14.58-.38s14.12-51.22,17-71.36c5-34.46-7.52-90.64-7.52-90.64Z" style="fill:#407BFF"></path><path d="M341.94,236.85s11.57,51.17,3.84,87.24c-5.17,24.16-23.82,73-23.82,73l-14.58-.38s14.12-51.22,17-71.36c5-34.46-7.52-90.64-7.52-90.64Z" style="fill:#fafafa;opacity:0.6000000000000001"></path><path d="M328.6,247.18l-7.29,11.5a352.87,352.87,0,0,1,4.17,41.19C335.73,281.51,330.88,256.9,328.6,247.18Z" style="fill:#407BFF"></path><path d="M328.6,247.18l-7.29,11.5a352.87,352.87,0,0,1,4.17,41.19C335.73,281.51,330.88,256.9,328.6,247.18Z" style="fill:#fafafa;opacity:0.4"></path><polygon points="324.02 397.81 306 397.36 307.05 391.82 326.71 392.75 324.02 397.81" style="fill:#407BFF"></polygon><polygon points="324.02 397.81 306 397.36 307.05 391.82 326.71 392.75 324.02 397.81" style="opacity:0.30000000000000004"></polygon><path d="M334.46,236.3s-6.78,54.27-21.49,83.89c-11.88,23.93-43.59,58-43.59,58l-8.1-8.35s21.41-37,30.24-52.92c21.65-39,4-68.72,16.23-83Z" style="fill:#407BFF"></path><path d="M334.46,236.3s-6.78,54.27-21.49,83.89c-11.88,23.93-43.59,58-43.59,58l-8.1-8.35s21.41-37,30.24-52.92c21.65-39,4-68.72,16.23-83Z" style="fill:#fafafa;opacity:0.6000000000000001"></path><polygon points="270.2 379.3 259.74 369.11 263.21 364.38 274.61 376.17 270.2 379.3" style="fill:#407BFF"></polygon><polygon points="270.2 379.3 259.74 369.11 263.21 364.38 274.61 376.17 270.2 379.3" style="opacity:0.30000000000000004"></polygon><path d="M307.41,231.84l-1.81,2.92c-.14.23.13.5.52.53l35.85,3.1c.31,0,.58-.1.62-.29l.57-3c0-.21-.21-.42-.55-.45l-34.62-3A.63.63,0,0,0,307.41,231.84Z" style="fill:#263238"></path><path d="M311.73,236.11l-.93-.08c-.19,0-.32-.12-.3-.24l.78-3.94c0-.11.2-.19.38-.18l.93.08c.18,0,.31.13.29.24l-.78,3.94C312.08,236.05,311.91,236.13,311.73,236.11Z" style="fill:#407BFF"></path><path d="M311.73,236.11l-.93-.08c-.19,0-.32-.12-.3-.24l.78-3.94c0-.11.2-.19.38-.18l.93.08c.18,0,.31.13.29.24l-.78,3.94C312.08,236.05,311.91,236.13,311.73,236.11Z" style="fill:#fafafa;opacity:0.6000000000000001"></path><path d="M339.34,238.5l-.93-.08c-.18,0-.31-.12-.29-.24l.78-3.94c0-.11.19-.19.37-.18l.93.08c.19,0,.32.13.3.24l-.78,3.94A.35.35,0,0,1,339.34,238.5Z" style="fill:#407BFF"></path><path d="M339.34,238.5l-.93-.08c-.18,0-.31-.12-.29-.24l.78-3.94c0-.11.19-.19.37-.18l.93.08c.19,0,.32.13.3.24l-.78,3.94A.35.35,0,0,1,339.34,238.5Z" style="fill:#fafafa;opacity:0.6000000000000001"></path><path d="M325.53,237.31l-.92-.08c-.19,0-.32-.13-.3-.24l.78-3.94c0-.12.19-.2.38-.18l.92.08c.19,0,.32.12.3.24l-.78,3.93C325.89,237.24,325.72,237.32,325.53,237.31Z" style="fill:#407BFF"></path><path d="M325.53,237.31l-.92-.08c-.19,0-.32-.13-.3-.24l.78-3.94c0-.12.19-.2.38-.18l.92.08c.19,0,.32.12.3.24l-.78,3.93C325.89,237.24,325.72,237.32,325.53,237.31Z" style="fill:#fafafa;opacity:0.6000000000000001"></path><path d="M332.28,156.22c.13.67.59,1.14,1,1.05s.68-.69.55-1.36-.59-1.14-1-1.06S332.15,155.55,332.28,156.22Z" style="fill:#263238"></path><path d="M339.84,154.73c.13.67.59,1.14,1,1.06s.68-.7.55-1.37-.59-1.14-1-1S339.7,154.06,339.84,154.73Z" style="fill:#263238"></path><path d="M340.2,153.44l1.52-.78S341.14,154.08,340.2,153.44Z" style="fill:#263238"></path><path d="M338.06,156.28a18.35,18.35,0,0,0,3.23,3.79,2.94,2.94,0,0,1-2.3.92Z" style="fill:#892b29"></path><path d="M335.9,164.18a5.54,5.54,0,0,1-3.81-1.45.18.18,0,0,1,0-.24.17.17,0,0,1,.24,0,5.46,5.46,0,0,0,4.75,1.23.17.17,0,0,1,.2.13.16.16,0,0,1-.13.19A6.25,6.25,0,0,1,335.9,164.18Z" style="fill:#263238"></path><path d="M328.56,152a.38.38,0,0,1-.17,0,.34.34,0,0,1-.11-.46,3.88,3.88,0,0,1,3-1.95h0a.34.34,0,0,1,.34.32.33.33,0,0,1-.32.34,3.27,3.27,0,0,0-2.47,1.63A.32.32,0,0,1,328.56,152Z" style="fill:#263238"></path><path d="M342.76,150.82a.32.32,0,0,1-.16,0,3.24,3.24,0,0,0-3-.19.34.34,0,0,1-.45-.14.34.34,0,0,1,.14-.45,3.88,3.88,0,0,1,3.58.2.33.33,0,0,1,.13.45A.32.32,0,0,1,342.76,150.82Z" style="fill:#263238"></path><path d="M308.7,194.55a83.92,83.92,0,0,1-4.62,8.07c-1.68,2.58-3.46,5.08-5.37,7.51a77.91,77.91,0,0,1-6.22,6.91c-1.13,1.08-2.26,2.16-3.48,3.16l-.9.77a10.9,10.9,0,0,1-1.34.94,7.23,7.23,0,0,1-3.81,1,6.82,6.82,0,0,1-3.77-1.33,10.29,10.29,0,0,1-2.22-2.2,21.6,21.6,0,0,1-2.53-4.51,54.12,54.12,0,0,1-2.81-8.93A119.26,119.26,0,0,1,269,188l3.53-.44c.57,2.84,1.18,5.74,1.89,8.58s1.43,5.67,2.3,8.41a58.84,58.84,0,0,0,3,7.88,15.94,15.94,0,0,0,2,3.15,4.43,4.43,0,0,0,1,.87c.28.16.37.13.38.11a1.3,1.3,0,0,0,.4-.2c.13-.09.29-.22.46-.36l.76-.72c1-.93,2-1.95,3-3,1.92-2.07,3.7-4.29,5.44-6.54s3.33-4.65,4.85-7.08c.77-1.2,1.51-2.43,2.24-3.67s1.42-2.52,2-3.68Z" style="fill:#9f5b53"></path><path d="M274.1,188.79l-.89-7.49-7.42,4.78s2.43,4,5.79,5.08Z" style="fill:#9f5b53"></path><polygon points="270.46 178.26 265.61 182.84 265.79 186.08 273.21 181.3 270.46 178.26" style="fill:#9f5b53"></polygon><path d="M306.1,182.31c-4.19.75-10.06,12.77-10.06,12.77l10.57,9.55s8.4-9.16,7.95-14.62C314.18,185.37,311.44,181.37,306.1,182.31Z" style="fill:#407BFF"></path><path d="M306.1,182.31c-4.19.75-10.06,12.77-10.06,12.77l10.57,9.55s8.4-9.16,7.95-14.62C314.18,185.37,311.44,181.37,306.1,182.31Z" style="opacity:0.30000000000000004"></path><path d="M264,387.31a.87.87,0,0,1-.32-.06c-1-.33-1.66-2.19-2-3.27a.18.18,0,0,1,.06-.17.17.17,0,0,1,.18,0c.31.16,3,1.59,3.07,2.65a.64.64,0,0,1-.28.59A1.2,1.2,0,0,1,264,387.31Zm-1.85-3c.46,1.48,1.06,2.47,1.63,2.66a.82.82,0,0,0,.76-.17.32.32,0,0,0,.15-.3C264.64,385.82,263.07,384.8,262.15,384.28Z" style="fill:#407BFF"></path><path d="M264.42,384.7a6,6,0,0,1-2.63-.62.16.16,0,0,1-.08-.14.18.18,0,0,1,.08-.15c.09-.05,2.21-1.21,3.35-.81a1,1,0,0,1,.63.6.68.68,0,0,1-.15.82A2,2,0,0,1,264.42,384.7Zm-2.18-.76c.91.39,2.67.63,3.16.2.08-.07.17-.18.06-.44a.66.66,0,0,0-.43-.4C264.26,383,262.84,383.64,262.24,383.94Z" style="fill:#407BFF"></path><path d="M319.7,408.47a13.44,13.44,0,0,1-2.74-.35.16.16,0,0,1-.13-.14.17.17,0,0,1,.09-.17c.42-.2,4.06-1.87,5-1.26a.57.57,0,0,1,.24.52,1.23,1.23,0,0,1-.5.94A3.31,3.31,0,0,1,319.7,408.47Zm-2.17-.57c1.08.2,3.08.46,3.9-.16a.85.85,0,0,0,.36-.69c0-.14,0-.19-.09-.22C321.19,406.48,319,407.23,317.53,407.9Z" style="fill:#407BFF"></path><path d="M317,408.13a.21.21,0,0,1-.11,0,.18.18,0,0,1-.06-.17c0-.15.89-3.75,2.84-3.51.49.06.63.31.65.5.13.92-2.17,2.76-3.26,3.2Zm2.49-3.4c-1.26,0-2,2.09-2.24,2.93,1.18-.62,2.82-2.12,2.74-2.7,0,0,0-.18-.36-.22Z" style="fill:#407BFF"></path><path d="M332.65,154.93l1.51-.78S333.58,155.57,332.65,154.93Z" style="fill:#263238"></path></g><g id="freepik--Graphics--inject-77"><path d="M123.53,157a95.27,95.27,0,0,1,67.59-28h13.53s63.83,16.71,63.83,85.09c0,66.84-44.19,126-63.82,145.66H191.14l-67.61-67.61A95.6,95.6,0,0,1,123.53,157Zm67.6,112a44.38,44.38,0,1,0-44.38-44.37A44.38,44.38,0,0,0,191.13,268.92Z" style="fill:#263238"></path><path d="M274,155.19a100.32,100.32,0,0,0-12.8-10.81l.57-.82a101,101,0,0,1,12.94,10.93Zm-18.78-14.72c-2.35-1.42-4.79-2.76-7.24-4l.44-.9c2.48,1.23,4.94,2.58,7.32,4Z" style="fill:#407BFF"></path><path d="M274,155.19a100.32,100.32,0,0,0-12.8-10.81l.57-.82a101,101,0,0,1,12.94,10.93Zm-18.78-14.72c-2.35-1.42-4.79-2.76-7.24-4l.44-.9c2.48,1.23,4.94,2.58,7.32,4Z" style="opacity:0.2"></path><path d="M137.05,157A95.59,95.59,0,0,1,272.23,292.14l-67.57,67.58-67.61-67.61A95.58,95.58,0,0,1,137.05,157Zm67.6,112a44.38,44.38,0,1,0-44.38-44.37A44.38,44.38,0,0,0,204.65,268.92Z" style="fill:#407BFF"></path><path d="M137.05,157A95.59,95.59,0,0,1,272.23,292.14l-67.57,67.58-67.61-67.61A95.58,95.58,0,0,1,137.05,157Zm67.6,112a44.38,44.38,0,1,0-44.38-44.37A44.38,44.38,0,0,0,204.65,268.92Z" style="opacity:0.2"></path><path d="M204.66,354.31a.25.25,0,0,1-.18-.08L139.7,289.46a91.82,91.82,0,1,1,129.88,0l-64.75,64.74A.23.23,0,0,1,204.66,354.31Zm0-221.09a91.32,91.32,0,0,0-64.56,155.89l64.6,64.59,64.57-64.56.17.17-.17-.17a91.35,91.35,0,0,0-64.61-155.92Zm0,140a48.63,48.63,0,1,1,48.63-48.62A48.68,48.68,0,0,1,204.65,273.17Zm0-96.75a48.13,48.13,0,1,0,48.13,48.13A48.18,48.18,0,0,0,204.65,176.42Z" style="fill:#fafafa;opacity:0.4;mix-blend-mode:color-dodge"></path></g></svg>