<svg id="Capa_1" data-name="Capa 1" xmlns="http://www.w3.org/2000/svg" xmlns:xlink="http://www.w3.org/1999/xlink" viewBox="0 0 1765.51 967.8"><defs><linearGradient id="Degradado_sin_nombre" x1="-22.45" y1="367.84" x2="1897.55" y2="367.84" gradientTransform="translate(0 315.24)" gradientUnits="userSpaceOnUse"><stop offset="0" stop-color="#2d2db0"/><stop offset="0.3" stop-color="#212f8a"/><stop offset="0.58" stop-color="#18316d"/><stop offset="0.82" stop-color="#13325b"/><stop offset="1" stop-color="#113255"/></linearGradient></defs><title>stars</title><path d="M1762.1,249.9c-2.4.8-1.4,4.7,1.1,4.5a2.85,2.85,0,0,0,1.4-.6c.1,0,.2-.1.3-.1C1766.8,252.1,1763.9,249.3,1762.1,249.9Z" transform="translate(-0.01 -53)" style="fill:#c7ebff"/><path d="M1736.4,97.9c-1.6.5-1,3.2.7,3a2.6,2.6,0,0,0,1-.4c.1,0,.1-.1.2-.1C1739.4,99.5,1737.5,97.6,1736.4,97.9Z" transform="translate(-0.01 -53)" style="fill:#c7ebff"/><path d="M885.2,202.2c-2.5.9-1.4,4.9,1.1,4.7a2.1,2.1,0,0,0,1.4-.7c.1,0,.2-.1.3-.1C890,204.5,887,201.6,885.2,202.2Z" transform="translate(-0.01 -53)" style="fill:#c7ebff"/><path d="M.7,682c-1.2.4-.7,2.3.5,2.2a.91.91,0,0,0,.7-.3.1.1,0,0,1,.1-.1C3,683.1,1.6,681.7.7,682Z" transform="translate(-0.01 -53)" style="fill:url(#Degradado_sin_nombre)"/><path d="M93.5,884.7c-2.3.8-1.3,4.5,1,4.3a2.23,2.23,0,0,0,1.3-.6c.1,0,.2-.1.3-.2C97.9,886.9,95.2,884.2,93.5,884.7Z" transform="translate(-0.01 -53)" style="fill:#92cdfa"/><path d="M.7,682c-1.2.4-.7,2.3.5,2.2a.91.91,0,0,0,.7-.3.1.1,0,0,0,.1-.1C3,683.1,1.6,681.7.7,682Z" transform="translate(-0.01 -53)" style="fill:#92cdfa"/><path d="M1572.4,903.6a7.72,7.72,0,0,0-1.5-.2h-.3c0-.3-.1-.7-.1-1-.1-.7-.3-1.9-1.4-2.1-.2,0-.6,1.3-.7,1.4a7.72,7.72,0,0,0-.2,1.5v.2c-.3,0-.7.1-1,.1-.7.1-2.1.2-2.3,1.3,0,.2,1.4.6,1.5.7a5.54,5.54,0,0,0,1.8.2c0,.3.1.6.1.9.1.7.2,2,1.3,2.2.2,0,.6-1.3.7-1.4a8.81,8.81,0,0,0,.2-1.7,4.1,4.1,0,0,0,1.1-.1c.7-.1,2-.3,2.2-1.4C1574,904.1,1572.6,903.7,1572.4,903.6Z" transform="translate(-0.01 -53)" style="fill:#d7d7ff"/><path d="M1023.8,488.4a8.6,8.6,0,0,0-1.6-.1h-.3c0-.3-.1-.6-.1-1.1-.1-.7-.3-2-1.5-2.2-.2,0-.6,1.4-.7,1.5a8.75,8.75,0,0,0-.2,1.6v.2c-.3,0-.7.1-1.1.1-.7.1-2.2.2-2.4,1.5,0,.2,1.5.6,1.6.6a12.25,12.25,0,0,0,1.9.2c0,.3.1.6.1.9.1.7.2,2.1,1.4,2.3.2,0,.6-1.4.7-1.5a9.91,9.91,0,0,0,.2-1.8,5.28,5.28,0,0,0,1.2-.1c.7-.1,2.1-.3,2.3-1.5C1025.4,489,1024,488.5,1023.8,488.4Z" transform="translate(-0.01 -53)" style="fill:#d7d7ff"/><path d="M1604.7,56.5a8.75,8.75,0,0,0-1.6-.2h-.3c0-.3-.1-.7-.1-1.1-.1-.7-.3-2-1.5-2.2-.2,0-.6,1.4-.7,1.5a8.75,8.75,0,0,0-.2,1.6v.2c-.3,0-.7.1-1.1.1-.7.1-2.2.2-2.4,1.4,0,.2,1.5.6,1.6.7a6.15,6.15,0,0,0,1.9.2c0,.3.1.6.1.9.1.7.2,2.1,1.4,2.3.2,0,.6-1.4.7-1.5a9.91,9.91,0,0,0,.2-1.8,5.28,5.28,0,0,0,1.2-.1c.7-.1,2.1-.3,2.3-1.5A12.43,12.43,0,0,0,1604.7,56.5Z" transform="translate(-0.01 -53)" style="fill:#d7d7ff"/><path d="M1454.8,703.1a13.61,13.61,0,0,0-2.1-.2h-.7c0-.6-.1-1.2-.1-1.7-.1-1-.3-2.6-1.4-2.9-.2,0-.6,1.9-.7,2a13.61,13.61,0,0,0-.2,2.1v.7c-.5,0-1.1.1-1.6.1-.9.1-2.7.2-3,1.3,0,.2,1.9.6,2,.7a13.2,13.2,0,0,0,2.8.2c0,.5.1,1.1.1,1.6.1.9.2,2.7,1.3,3,.2,0,.6-1.9.7-2a13.2,13.2,0,0,0,.2-2.8c.6,0,1.2-.1,1.7-.1.9-.1,2.7-.3,2.9-1.4C1456.8,703.5,1455,703.1,1454.8,703.1Z" transform="translate(-0.01 -53)" style="fill:#71cefc"/><path d="M1040.5,1015.6a7.72,7.72,0,0,0-1.5-.2h-.3c0-.3-.1-.7-.1-1-.1-.7-.3-1.9-1.4-2.1-.2,0-.6,1.3-.7,1.4a7.72,7.72,0,0,0-.2,1.5v.2c-.3,0-.7.1-1,.1-.7.1-2.1.2-2.3,1.3,0,.2,1.4.6,1.5.7a5.54,5.54,0,0,0,1.8.2c0,.3.1.6.1.9.1.7.2,1.9,1.3,2.2.2,0,.6-1.3.7-1.4a9.85,9.85,0,0,0,.2-1.7c.4,0,.7-.1,1.1-.1.7-.1,2-.3,2.2-1.4C1042,1016.1,1040.6,1015.6,1040.5,1015.6Z" transform="translate(-0.01 -53)" style="fill:#d7d7ff"/><path d="M751.4,750.7a13.55,13.55,0,0,0-2-.2h-.7c0-.6-.1-1.2-.1-1.7-.1-1-.3-2.5-1.4-2.8-.2,0-.6,1.8-.7,1.9a13.55,13.55,0,0,0-.2,2v.7c-.5,0-1.1.1-1.6.1-.9.1-2.6.2-2.9,1.3,0,.2,1.8.6,1.9.7a12.29,12.29,0,0,0,2.7.2c0,.5.1,1.1.1,1.6.1.9.2,2.6,1.3,2.9.2,0,.6-1.8.7-1.9a12.29,12.29,0,0,0,.2-2.7c.6,0,1.2-.1,1.7-.1,1-.1,2.5-.3,2.8-1.4C753.4,751.2,751.6,750.8,751.4,750.7Z" transform="translate(-0.01 -53)" style="fill:#71cefc"/><path d="M356.5,410.3a12.75,12.75,0,0,0-2-.1h-.7c0-.6-.1-1.1-.1-1.7-.1-1-.3-2.5-1.4-2.9-.2,0-.6,1.8-.7,1.9a12.75,12.75,0,0,0-.1,2v.7c-.5,0-1.1.1-1.6.1-.9.1-2.6.2-2.9,1.3,0,.2,1.8.6,1.9.6a12.29,12.29,0,0,0,2.7.2c0,.5.1,1.1.1,1.6.1.9.2,2.6,1.3,2.9.2,0,.6-1.8.7-1.9a8.17,8.17,0,0,0,.1-2.7c.6,0,1.1-.1,1.7-.1,1-.1,2.5-.3,2.9-1.4A16.66,16.66,0,0,0,356.5,410.3Z" transform="translate(-0.01 -53)" style="fill:#71cefc"/><path d="M799.3,216.7a7.57,7.57,0,0,0-1.5-.1h-.3a3.75,3.75,0,0,0-.1-1c-.1-.7-.3-1.9-1.4-2.1-.2,0-.6,1.3-.7,1.4a7.72,7.72,0,0,0-.2,1.5v.2c-.3,0-.7.1-1,.1-.7.1-2.1.2-2.3,1.4,0,.2,1.4.6,1.5.6a11,11,0,0,0,1.8.2c0,.3.1.6.1.9.1.7.2,1.9,1.3,2.2.2,0,.6-1.3.7-1.4a9.85,9.85,0,0,0,.2-1.7c.4,0,.7-.1,1.1-.1.7-.1,2-.3,2.2-1.4C800.8,217.1,799.4,216.7,799.3,216.7Z" transform="translate(-0.01 -53)" style="fill:#d7d7ff"/></svg>